<?xml version="1.0" encoding="utf-8"?>
<!-- Generator: Adobe Illustrator 23.1.0, SVG Export Plug-In . SVG Version: 6.00 Build 0)  -->
<svg version="1.1" id="Слой_1" xmlns="http://www.w3.org/2000/svg" xmlns:xlink="http://www.w3.org/1999/xlink" x="0px" y="0px"
	 viewBox="0 0 842.12 595.28" style="enable-background:new 0 0 842.12 595.28;" xml:space="preserve">
<style type="text/css">
	.st0{fill:#2D9275;}
</style>
<g>
	<path class="st0" d="M823.75,133.64c-3.5,0.04-6.25-2.65-6.26-6.14c-0.01-3.46,2.78-6.28,6.2-6.26c3.29,0.02,6.1,2.77,6.2,6.08
		C829.99,130.72,827.19,133.6,823.75,133.64z"/>
	<path class="st0" d="M817.5,112.27c0.04-3.48,2.86-6.17,6.36-6.07c3.34,0.09,6.05,2.91,6,6.24c-0.05,3.32-2.85,6.1-6.16,6.12
		C820.26,118.58,817.46,115.74,817.5,112.27z"/>
	<path class="st0" d="M823.55,148.91c-3.34-0.06-6.03-2.85-5.98-6.19c0.05-3.35,2.81-6,6.19-5.95c3.4,0.05,6.01,2.74,5.95,6.15
		C829.65,146.3,826.89,148.98,823.55,148.91z"/>
	<path class="st0" d="M808.41,133.56c-3.34,0.06-6.13-2.63-6.2-5.96c-0.07-3.35,2.6-6.11,5.97-6.17c3.42-0.06,6.11,2.53,6.17,5.93
		C814.4,130.74,811.76,133.5,808.41,133.56z"/>
	<path class="st0" d="M814.32,112.31c0.02,3.43-2.61,6.08-6.04,6.06c-3.29-0.01-5.96-2.6-6.05-5.86c-0.09-3.32,2.63-6.16,5.97-6.23
		C811.54,106.21,814.29,108.92,814.32,112.31z"/>
	<path class="st0" d="M829.64,96.88c0.05,3.36-2.45,6.01-5.77,6.1c-3.42,0.1-6.22-2.53-6.28-5.89c-0.06-3.32,2.73-6.16,6.06-6.16
		C826.92,90.94,829.59,93.59,829.64,96.88z"/>
	<path class="st0" d="M814.26,142.77c0.03,3.39-2.69,6.14-6.03,6.1c-3.21-0.04-5.93-2.76-5.98-5.97c-0.05-3.33,2.7-6.06,6.09-6.03
		C811.68,136.88,814.24,139.44,814.26,142.77z"/>
	<path class="st0" d="M814.23,97.09c-0.04,3.29-2.66,5.86-5.97,5.84c-3.27-0.02-5.94-2.67-5.96-5.91c-0.01-3.28,2.89-6.12,6.15-6.01
		C811.71,91.1,814.27,93.8,814.23,97.09z"/>
	<path class="st0" d="M823.59,152.27c3.3-0.03,5.95,2.56,5.98,5.85c0.03,3.29-2.59,5.98-5.85,6.02c-3.21,0.04-5.98-2.68-6.03-5.9
		C817.64,155,820.32,152.3,823.59,152.27z"/>
	<path class="st0" d="M793,121.56c3.29,0.02,5.88,2.67,5.85,5.96c-0.03,3.27-2.73,5.94-5.96,5.9c-3.22-0.04-5.93-2.8-5.9-6.01
		C787.03,124.15,789.71,121.54,793,121.56z"/>
	<path class="st0" d="M798.84,112.27c0.04,3.3-2.58,5.97-5.88,5.98c-3.29,0.01-5.98-2.67-5.95-5.94c0.03-3.16,2.62-5.8,5.79-5.89
		C796.06,106.33,798.8,108.99,798.84,112.27z"/>
	<path class="st0" d="M808.25,164.06c-3.29-0.03-5.92-2.77-5.82-6.05c0.1-3.21,2.72-5.73,5.92-5.7c3.28,0.03,5.91,2.76,5.82,6.05
		C814.09,161.54,811.44,164.09,808.25,164.06z"/>
	<path class="st0" d="M823.73,87.75c-3.29,0.04-5.97-2.64-5.94-5.93c0.03-3.2,2.61-5.79,5.81-5.82c3.19-0.03,5.84,2.51,5.94,5.69
		C829.63,84.98,827.02,87.71,823.73,87.75z"/>
	<path class="st0" d="M798.82,142.88c-0.03,3.2-2.6,5.78-5.81,5.82c-3.29,0.04-5.97-2.64-5.94-5.93c0.03-3.3,2.75-5.91,6.05-5.82
		C796.3,137.04,798.85,139.69,798.82,142.88z"/>
	<path class="st0" d="M792.91,91.19c3.23-0.02,5.82,2.51,5.88,5.71c0.05,3.26-2.67,5.99-5.93,5.94c-3.21-0.05-5.73-2.64-5.72-5.87
		C787.15,93.73,789.67,91.21,792.91,91.19z"/>
	<path class="st0" d="M814.14,81.69c-0.03,3.16-2.67,5.78-5.82,5.79c-3.29,0.01-5.89-2.68-5.81-6c0.08-3.24,2.64-5.68,5.9-5.63
		C811.63,75.9,814.17,78.49,814.14,81.69z"/>
	<path class="st0" d="M793.04,163.92c-3.27,0.04-5.79-2.4-5.83-5.65c-0.04-3.22,2.47-5.84,5.65-5.89c3.12-0.05,5.83,2.57,5.89,5.71
		C798.81,161.26,796.24,163.87,793.04,163.92z"/>
	<path class="st0" d="M823.68,167.58c3.22,0.01,5.82,2.63,5.76,5.81c-0.06,3.06-2.63,5.64-5.69,5.7c-3.18,0.06-5.8-2.53-5.82-5.75
		C817.92,170.06,820.41,167.56,823.68,167.58z"/>
	<path class="st0" d="M783.55,112.38c-0.01,3.22-2.63,5.82-5.81,5.76c-3.06-0.06-5.64-2.63-5.7-5.69c-0.06-3.18,2.53-5.8,5.75-5.82
		C781.06,106.61,783.56,109.11,783.55,112.38z"/>
	<path class="st0" d="M783.55,127.37c0.05,3.28-2.42,5.81-5.69,5.82c-3.22,0.01-5.84-2.57-5.82-5.75c0.01-3.05,2.57-5.66,5.63-5.76
		C780.83,121.57,783.5,124.16,783.55,127.37z"/>
	<path class="st0" d="M787.24,81.55c0.04-3.24,2.59-5.69,5.85-5.62c3.08,0.06,5.6,2.6,5.62,5.67c0.02,3.1-2.69,5.82-5.79,5.8
		C789.76,87.39,787.2,84.75,787.24,81.55z"/>
	<path class="st0" d="M802.6,173.2c0.05-3.23,2.61-5.67,5.86-5.59c3.07,0.07,5.59,2.63,5.6,5.69c0.01,3.1-2.71,5.8-5.81,5.78
		C805.1,179.03,802.55,176.39,802.6,173.2z"/>
	<path class="st0" d="M783.52,142.89c-0.03,3.23-2.58,5.69-5.83,5.63c-3.08-0.06-5.6-2.59-5.63-5.65c-0.03-3.09,2.67-5.81,5.77-5.81
		C780.99,137.07,783.56,139.7,783.52,142.89z"/>
	<path class="st0" d="M823.77,72.2c-3.25,0.05-5.8-2.45-5.8-5.69c0-3.1,2.49-5.66,5.57-5.74c3.1-0.08,5.86,2.63,5.86,5.75
		C829.39,69.6,826.86,72.15,823.77,72.2z"/>
	<path class="st0" d="M808.27,72.18c-3.13-0.01-5.62-2.49-5.64-5.62c-0.02-3.11,2.47-5.67,5.57-5.74c3.13-0.06,5.85,2.65,5.8,5.79
		C813.94,69.7,811.38,72.19,808.27,72.18z"/>
	<path class="st0" d="M783.47,158.07c0.05,3.11-2.38,5.66-5.47,5.75c-3.19,0.09-5.83-2.46-5.83-5.65c0-3.08,2.53-5.62,5.61-5.65
		C780.87,152.5,783.42,154.99,783.47,158.07z"/>
	<path class="st0" d="M787.3,173.39c-0.05-3.11,2.39-5.66,5.48-5.74c3.19-0.08,5.82,2.48,5.82,5.66c-0.01,3.08-2.54,5.62-5.62,5.64
		C789.89,178.97,787.35,176.48,787.3,173.39z"/>
	<path class="st0" d="M777.78,87.21c-3.16-0.03-5.59-2.54-5.53-5.7c0.06-3.04,2.5-5.46,5.52-5.49c3.1-0.03,5.66,2.51,5.67,5.61
		C783.45,84.74,780.92,87.24,777.78,87.21z"/>
	<path class="st0" d="M756.91,127.43c0.02-3.16,2.51-5.59,5.67-5.54c3.04,0.05,5.47,2.48,5.5,5.49c0.04,3.09-2.49,5.67-5.58,5.68
		C759.39,133.09,756.89,130.57,756.91,127.43z"/>
	<path class="st0" d="M798.51,66.64c-0.06,3.13-2.64,5.59-5.74,5.49c-3.09-0.1-5.56-2.75-5.43-5.83c0.12-3.01,2.61-5.36,5.65-5.34
		C796.15,60.98,798.57,63.47,798.51,66.64z"/>
	<path class="st0" d="M823.6,194.22c-3.13-0.03-5.62-2.57-5.56-5.68c0.07-3.09,2.68-5.58,5.77-5.5c3.01,0.08,5.4,2.55,5.41,5.59
		C829.23,191.79,826.76,194.25,823.6,194.22z"/>
	<path class="st0" d="M756.96,142.84c-0.01-3.09,2.31-5.47,5.39-5.52c3.16-0.05,5.7,2.41,5.7,5.51c0,3.06-2.63,5.64-5.69,5.58
		C759.35,148.34,756.97,145.89,756.96,142.84z"/>
	<path class="st0" d="M813.83,188.63c0.01,3.09-2.32,5.5-5.4,5.56c-3.17,0.06-5.72-2.39-5.73-5.52c-0.01-3.08,2.61-5.66,5.69-5.61
		C811.42,183.12,813.82,185.57,813.83,188.63z"/>
	<path class="st0" d="M829.15,51.43c-0.12,3.01-2.66,5.4-5.65,5.3c-3.06-0.1-5.58-2.8-5.42-5.83c0.16-3.11,2.78-5.41,5.95-5.24
		C827.06,45.84,829.27,48.33,829.15,51.43z"/>
	<path class="st0" d="M762.51,117.89c-3.16,0.02-5.6-2.42-5.58-5.58c0.02-3.04,2.39-5.48,5.4-5.56c3.06-0.08,5.69,2.43,5.74,5.5
		C768.13,115.35,765.64,117.87,762.51,117.89z"/>
	<path class="st0" d="M813.78,51.05c0.05,3.06-2.29,5.55-5.31,5.66c-3.02,0.11-5.72-2.51-5.72-5.55c0-3.01,2.45-5.45,5.49-5.48
		C811.33,45.66,813.73,47.98,813.78,51.05z"/>
	<path class="st0" d="M777.86,61.06c3.05,0.02,5.52,2.49,5.5,5.49c-0.02,2.95-2.6,5.52-5.55,5.5c-3.01-0.01-5.45-2.5-5.44-5.55
		C772.37,63.42,774.77,61.04,777.86,61.06z"/>
	<path class="st0" d="M757.01,158.18c0-3.08,2.39-5.47,5.47-5.46c3.05,0.01,5.53,2.46,5.52,5.47c0,2.95-2.58,5.52-5.53,5.52
		C759.46,163.71,757.01,161.23,757.01,158.18z"/>
	<path class="st0" d="M798.41,188.63c0.01,3.06-2.34,5.46-5.4,5.49c-3.04,0.03-5.52-2.33-5.61-5.34c-0.09-3.02,2.54-5.69,5.57-5.67
		C795.98,183.14,798.4,185.6,798.41,188.63z"/>
	<path class="st0" d="M762.41,87.08c-3.04-0.03-5.41-2.46-5.38-5.51c0.04-3.02,2.53-5.48,5.51-5.43c2.96,0.05,5.47,2.62,5.43,5.57
		C767.93,84.7,765.44,87.11,762.41,87.08z"/>
	<path class="st0" d="M792.96,45.73c3.05,0.01,5.45,2.45,5.41,5.51c-0.04,2.94-2.41,5.33-5.33,5.39c-2.97,0.06-5.54-2.44-5.58-5.43
		C787.43,48.2,789.92,45.73,792.96,45.73z"/>
	<path class="st0" d="M741.7,127.46c0-3.03,2.45-5.44,5.48-5.4c2.91,0.03,5.3,2.39,5.36,5.3c0.07,2.99-2.38,5.51-5.38,5.55
		C744.17,132.94,741.7,130.47,741.7,127.46z"/>
	<path class="st0" d="M823.3,209.42c-3.02-0.06-5.38-2.55-5.3-5.58c0.09-2.91,2.5-5.26,5.4-5.26c2.99,0,5.47,2.5,5.44,5.49
		C828.81,207.07,826.32,209.48,823.3,209.42z"/>
	<path class="st0" d="M747.12,117.76c-3.04,0-5.47-2.48-5.41-5.52c0.06-2.93,2.48-5.31,5.4-5.31c3.03,0,5.5,2.52,5.43,5.54
		C752.47,115.4,750.06,117.75,747.12,117.76z"/>
	<path class="st0" d="M741.72,142.84c-0.01-3.02,2.46-5.46,5.49-5.41c2.92,0.05,5.28,2.44,5.3,5.37c0.01,3.04-2.45,5.47-5.49,5.41
		C744.09,148.15,741.73,145.77,741.72,142.84z"/>
	<path class="st0" d="M777.89,194.05c-3.02,0.04-5.49-2.42-5.46-5.44c0.02-2.93,2.39-5.3,5.32-5.34c3.04-0.04,5.49,2.4,5.46,5.44
		C783.19,191.63,780.82,194.01,777.89,194.05z"/>
	<path class="st0" d="M813.69,203.97c0.02,3.02-2.45,5.47-5.47,5.43c-2.92-0.04-5.29-2.42-5.32-5.35c-0.03-3.04,2.43-5.48,5.47-5.43
		C811.31,198.67,813.67,201.05,813.69,203.97z"/>
	<path class="st0" d="M767.81,66.41c0.06,2.99-2.2,5.37-5.18,5.45c-3.05,0.08-5.54-2.33-5.54-5.36c0.01-2.92,2.4-5.33,5.32-5.36
		C765.36,61.12,767.75,63.46,767.81,66.41z"/>
	<path class="st0" d="M818.32,36.13c-0.05-2.99,2.23-5.36,5.2-5.43c3.05-0.07,5.53,2.36,5.51,5.39c-0.02,2.92-2.43,5.32-5.35,5.33
		C820.74,41.43,818.36,39.08,818.32,36.13z"/>
	<path class="st0" d="M783.16,51.15c0.01,2.98-2.29,5.31-5.27,5.34c-3.05,0.03-5.5-2.42-5.43-5.45c0.06-2.91,2.5-5.28,5.41-5.25
		C780.8,45.82,783.15,48.2,783.16,51.15z"/>
	<path class="st0" d="M802.99,35.99c0.03-3,2.36-5.28,5.37-5.25c2.96,0.03,5.33,2.43,5.29,5.37c-0.04,2.91-2.5,5.32-5.41,5.29
		C805.31,41.37,802.97,38.96,802.99,35.99z"/>
	<path class="st0" d="M787.65,203.96c0.03-3,2.34-5.27,5.36-5.24c2.96,0.03,5.32,2.42,5.29,5.36c-0.03,2.9-2.5,5.32-5.4,5.29
		C789.96,209.33,787.62,206.92,787.65,203.96z"/>
	<path class="st0" d="M752.41,158.07c0.05,3.02-2.2,5.36-5.19,5.4c-2.97,0.05-5.39-2.27-5.45-5.2c-0.06-2.9,2.33-5.38,5.24-5.45
		C749.94,152.77,752.36,155.11,752.41,158.07z"/>
	<path class="st0" d="M752.39,81.53c0.05,2.96-2.24,5.38-5.17,5.44c-2.87,0.07-5.37-2.34-5.44-5.22c-0.07-2.92,2.28-5.34,5.22-5.39
		C750.01,76.31,752.34,78.54,752.39,81.53z"/>
	<path class="st0" d="M787.7,36.1c-0.02-3.01,2.25-5.31,5.26-5.3c2.96,0.01,5.34,2.41,5.3,5.32c-0.05,2.79-2.41,5.17-5.2,5.24
		C790.15,41.43,787.72,39.05,787.7,36.1z"/>
	<path class="st0" d="M767.71,188.57c0.04,2.96-2.3,5.38-5.21,5.39c-2.86,0.02-5.35-2.47-5.34-5.34c0.02-2.83,2.31-5.15,5.16-5.21
		C765.33,183.35,767.67,185.58,767.71,188.57z"/>
	<path class="st0" d="M726.78,112.46c-0.05-3,2.24-5.34,5.24-5.33c2.85,0,5.2,2.28,5.27,5.12c0.07,2.85-2.44,5.4-5.3,5.39
		C729.17,117.63,726.83,115.31,726.78,112.46z"/>
	<path class="st0" d="M777.74,198.79c3-0.04,5.32,2.26,5.31,5.26c-0.02,2.85-2.31,5.19-5.14,5.25c-2.84,0.06-5.39-2.47-5.37-5.32
		C772.56,201.15,774.89,198.83,777.74,198.79z"/>
	<path class="st0" d="M732.01,132.69c-2.99,0-5.28-2.34-5.22-5.34c0.05-2.84,2.4-5.17,5.22-5.17c2.86,0,5.36,2.56,5.28,5.4
		C737.21,130.42,734.86,132.69,732.01,132.69z"/>
	<path class="st0" d="M762.43,56.38c-2.85-0.02-5.19-2.31-5.25-5.14c-0.05-2.85,2.47-5.39,5.32-5.37c2.83,0.02,5.15,2.35,5.18,5.2
		C767.73,54.08,765.43,56.4,762.43,56.38z"/>
	<path class="st0" d="M823.44,224.35c-2.95,0.02-5.37-2.4-5.32-5.31c0.06-2.78,2.48-5.18,5.25-5.2c2.91-0.02,5.3,2.41,5.26,5.37
		C828.6,222.1,826.34,224.33,823.44,224.35z"/>
	<path class="st0" d="M732.1,148.02c-2.9,0.05-5.22-2.16-5.3-5.04c-0.08-2.97,2.29-5.43,5.22-5.42c2.79,0.01,5.21,2.42,5.24,5.21
		C737.28,145.61,734.96,147.97,732.1,148.02z"/>
	<path class="st0" d="M808.2,224.33c-2.88-0.05-5.12-2.35-5.1-5.24c0.02-2.86,2.34-5.2,5.18-5.21c2.87-0.02,5.38,2.56,5.27,5.41
		C813.44,222.14,811.07,224.37,808.2,224.33z"/>
	<path class="st0" d="M818.47,20.74c-0.02-2.86,2.22-5.17,5.07-5.23c2.95-0.05,5.37,2.33,5.32,5.25c-0.04,2.81-2.43,5.16-5.23,5.14
		C820.81,25.89,818.5,23.58,818.47,20.74z"/>
	<path class="st0" d="M783.01,36.07c-0.01,2.85-2.31,5.18-5.15,5.21c-2.79,0.03-5.2-2.33-5.26-5.13c-0.06-2.92,2.36-5.33,5.31-5.28
		C780.77,30.9,783.02,33.2,783.01,36.07z"/>
	<path class="st0" d="M808.29,15.53c2.85-0.01,5.17,2.3,5.18,5.15c0.01,2.84-2.32,5.18-5.16,5.18c-2.85,0-5.17-2.31-5.17-5.16
		C803.14,17.84,805.43,15.54,808.29,15.53z"/>
	<path class="st0" d="M731.86,163.34c-2.84-0.07-5.09-2.44-5.02-5.29c0.07-2.84,2.45-5.11,5.29-5.03c2.85,0.08,5.12,2.47,5.03,5.3
		C737.08,161.17,734.72,163.41,731.86,163.34z"/>
	<path class="st0" d="M792.85,224.29c-2.84-0.05-5.11-2.4-5.07-5.25c0.05-2.85,2.4-5.13,5.25-5.08c2.84,0.05,5.14,2.43,5.08,5.26
		C798.05,222.07,795.7,224.34,792.85,224.29z"/>
	<path class="st0" d="M762.22,209.14c-2.88-0.14-5.04-2.56-4.86-5.45c0.17-2.78,2.48-4.9,5.26-4.83c2.85,0.08,5.11,2.49,5.01,5.34
		C767.52,207.06,765.09,209.28,762.22,209.14z"/>
	<path class="st0" d="M752.26,188.66c0,2.86-2.34,5.16-5.22,5.12c-2.79-0.04-5.01-2.23-5.06-5.03c-0.06-2.87,2.22-5.23,5.09-5.25
		C749.93,183.49,752.26,185.8,752.26,188.66z"/>
	<path class="st0" d="M732.06,76.49c2.86,0.03,5.13,2.4,5.06,5.27c-0.07,2.79-2.29,4.98-5.08,5.01c-2.87,0.03-5.2-2.28-5.2-5.14
		C726.86,78.77,729.21,76.46,732.06,76.49z"/>
	<path class="st0" d="M762.35,41.12c-2.82-0.06-4.96-2.25-4.96-5.08c0-2.89,2.35-5.19,5.2-5.11c2.75,0.07,4.99,2.38,5,5.12
		C767.6,38.91,765.26,41.18,762.35,41.12z"/>
	<path class="st0" d="M746.99,46.09c2.91-0.06,5.25,2.2,5.24,5.07c0,2.74-2.25,5.05-4.99,5.12c-2.86,0.08-5.2-2.22-5.21-5.11
		C742.04,48.34,744.17,46.15,746.99,46.09z"/>
	<path class="st0" d="M798.02,20.75c-0.03,2.83-2.19,4.99-5.02,5.01c-2.9,0.02-5.22-2.28-5.17-5.14c0.04-2.74,2.32-5.02,5.06-5.05
		C795.75,15.53,798.04,17.85,798.02,20.75z"/>
	<path class="st0" d="M772.78,219.15c-0.01-2.83,2.1-5.01,4.91-5.07c2.9-0.06,5.24,2.18,5.24,5.03c0.01,2.81-2.39,5.18-5.2,5.12
		C774.98,224.18,772.79,221.94,772.78,219.15z"/>
	<path class="st0" d="M777.73,25.7c-2.82-0.04-4.94-2.22-4.92-5.05c0.02-2.77,2.26-5.03,5-5.04c2.79-0.01,5.19,2.45,5.1,5.23
		C782.82,23.59,780.52,25.74,777.73,25.7z"/>
	<path class="st0" d="M721.65,127.41c0.02,2.79-2.15,5.07-4.9,5.14c-2.79,0.07-5.23-2.34-5.2-5.13c0.03-2.74,2.3-4.96,5.07-4.96
		C719.47,122.45,721.63,124.58,721.65,127.41z"/>
	<path class="st0" d="M747.12,209c-2.82,0.01-5-2.17-4.99-4.99c0-2.77,2.26-5.06,4.99-5.06c2.7,0,5.05,2.36,5.06,5.05
		C752.18,206.74,749.9,208.99,747.12,209z"/>
	<path class="st0" d="M716.73,137.83c2.82,0.04,4.96,2.25,4.91,5.09c-0.05,2.77-2.37,5.03-5.1,4.97c-2.71-0.06-5.02-2.46-4.96-5.16
		C711.64,139.98,713.94,137.79,716.73,137.83z"/>
	<path class="st0" d="M721.65,112.4c-0.02,2.83-2.18,4.96-5.01,4.96c-2.77,0-5.05-2.22-5.08-4.95c-0.03-2.79,2.41-5.21,5.19-5.14
		C719.5,107.34,721.68,109.62,721.65,112.4z"/>
	<path class="st0" d="M747.09,41c-2.79-0.01-4.97-2.24-4.93-5.04c0.04-2.67,2.21-4.86,4.86-4.91c2.7-0.06,5.07,2.26,5.1,4.97
		C752.15,38.74,749.86,41.01,747.09,41z"/>
	<path class="st0" d="M721.61,158.08c0.05,2.79-2.17,5.1-4.92,5.13c-2.7,0.03-5.08-2.34-5.07-5.04c0.01-2.65,2.19-4.88,4.86-4.95
		C719.31,153.13,721.56,155.27,721.61,158.08z"/>
	<path class="st0" d="M762.38,214.16c2.79-0.04,5.1,2.18,5.12,4.93c0.02,2.7-2.35,5.08-5.05,5.06c-2.65-0.01-4.87-2.2-4.95-4.87
		C757.43,216.46,759.57,214.2,762.38,214.16z"/>
	<path class="st0" d="M731.95,193.62c-2.77-0.03-5.05-2.35-4.98-5.08c0.07-2.62,2.34-4.87,4.95-4.92c2.73-0.05,5.03,2.24,5.04,5.02
		C736.98,191.46,734.77,193.65,731.95,193.62z"/>
	<path class="st0" d="M721.59,81.76c-0.06,2.77-2.34,4.92-5.13,4.82c-2.66-0.09-4.81-2.31-4.81-4.95c0.01-2.71,2.35-5.02,5.06-4.99
		C719.46,76.69,721.65,78.98,721.59,81.76z"/>
	<path class="st0" d="M732.04,46.22c2.78,0.02,4.96,2.26,4.91,5.05c-0.05,2.67-2.22,4.84-4.87,4.89c-2.7,0.05-5.05-2.26-5.07-4.97
		C726.99,48.45,729.28,46.2,732.04,46.22z"/>
	<path class="st0" d="M767.42,20.67c0.01,2.66-2.14,4.87-4.81,4.95c-2.77,0.07-5.06-2.13-5.07-4.9c-0.01-2.77,2.27-5.03,5.02-4.97
		C765.23,15.8,767.41,18.01,767.42,20.67z"/>
	<path class="st0" d="M747.02,223.97c-2.71-0.05-4.84-2.24-4.79-4.94c0.05-2.66,2.32-4.84,4.97-4.8c2.69,0.05,4.81,2.25,4.76,4.97
		C751.92,221.94,749.77,224.02,747.02,223.97z"/>
	<path class="st0" d="M701.31,132.31c-2.74,0.01-4.86-2.1-4.86-4.84c0-2.72,2.14-4.89,4.84-4.89c2.66-0.01,4.89,2.21,4.89,4.87
		C706.18,130.15,704.02,132.3,701.31,132.31z"/>
	<path class="st0" d="M736.89,203.94c0.04,2.65-2.15,4.91-4.81,4.96c-2.7,0.04-4.88-2.09-4.92-4.81c-0.04-2.74,2.04-4.89,4.78-4.93
		C734.65,199.13,736.85,201.25,736.89,203.94z"/>
	<path class="st0" d="M731.96,40.61c-2.76-0.02-4.82-2.14-4.77-4.92c0.05-2.62,2.13-4.71,4.74-4.76c2.65-0.04,4.92,2.19,4.94,4.85
		C736.88,38.48,734.69,40.63,731.96,40.61z"/>
	<path class="st0" d="M701.32,107.53c2.71,0.01,4.86,2.16,4.84,4.84c-0.01,2.64-2.25,4.86-4.89,4.85c-2.68-0.01-4.81-2.18-4.8-4.89
		C696.48,109.59,698.57,107.52,701.32,107.53z"/>
	<path class="st0" d="M747.19,15.9c2.75,0.04,4.78,2.16,4.71,4.93c-0.07,2.6-2.16,4.68-4.75,4.71c-2.62,0.02-4.9-2.24-4.89-4.87
		C742.28,18,744.47,15.87,747.19,15.9z"/>
	<path class="st0" d="M711.86,188.63c0.01-2.75,2.12-4.8,4.88-4.76c2.61,0.04,4.7,2.11,4.76,4.7c0.05,2.62-2.19,4.92-4.82,4.94
		C714,193.52,711.85,191.35,711.86,188.63z"/>
	<path class="st0" d="M716.59,55.91c-2.75-0.03-4.78-2.17-4.69-4.94c0.08-2.58,2.26-4.67,4.82-4.63c2.52,0.04,4.72,2.24,4.75,4.76
		C721.51,53.76,719.29,55.95,716.59,55.91z"/>
	<path class="st0" d="M701.51,76.89c2.75-0.01,4.82,2.1,4.77,4.86c-0.04,2.59-2.17,4.7-4.74,4.71c-2.61,0.01-4.9-2.33-4.84-4.92
		C696.77,78.96,698.91,76.89,701.51,76.89z"/>
	<path class="st0" d="M701.18,162.94c-2.74-0.06-4.76-2.22-4.65-5c0.1-2.58,2.31-4.66,4.87-4.59c2.54,0.07,4.7,2.28,4.71,4.81
		C706.12,160.84,703.9,162.99,701.18,162.94z"/>
	<path class="st0" d="M721.39,204.05c-0.02,2.56-2.24,4.74-4.79,4.72c-2.58-0.02-4.69-2.19-4.67-4.79c0.02-2.63,2.11-4.69,4.74-4.67
		C719.28,199.32,721.42,201.48,721.39,204.05z"/>
	<path class="st0" d="M732.01,25.39c-2.6,0.01-4.73-2.14-4.7-4.75c0.03-2.62,2.16-4.69,4.79-4.64c2.5,0.05,4.56,2.11,4.61,4.61
		C736.75,23.2,734.61,25.38,732.01,25.39z"/>
	<path class="st0" d="M716.54,40.49c-2.62-0.06-4.66-2.22-4.58-4.85c0.08-2.5,2.17-4.53,4.67-4.54c2.59-0.01,4.75,2.16,4.72,4.75
		C721.32,38.45,719.14,40.55,716.54,40.49z"/>
	<path class="st0" d="M690.84,112.34c0.01,2.59-2.11,4.68-4.72,4.65c-2.53-0.03-4.53-1.99-4.59-4.52c-0.07-2.61,1.99-4.76,4.58-4.78
		C688.7,107.66,690.83,109.75,690.84,112.34z"/>
	<path class="st0" d="M690.84,127.55c-0.05,2.59-2.21,4.65-4.8,4.58c-2.58-0.07-4.61-2.25-4.5-4.86c0.1-2.53,2.13-4.46,4.66-4.45
		C688.8,122.84,690.89,124.97,690.84,127.55z"/>
	<path class="st0" d="M701.35,183.99c2.59,0.03,4.64,2.18,4.58,4.79c-0.07,2.53-2.06,4.49-4.59,4.52c-2.61,0.02-4.72-2.07-4.71-4.66
		C696.64,186.05,698.76,183.96,701.35,183.99z"/>
	<path class="st0" d="M706.17,51.15c0,2.58-2.17,4.71-4.74,4.65c-2.5-0.05-4.49-2.1-4.5-4.62c-0.01-2.65,2.06-4.68,4.71-4.62
		C704.16,46.62,706.17,48.65,706.17,51.15z"/>
	<path class="st0" d="M690.79,158.11c0.04,2.46-2.02,4.6-4.48,4.69c-2.59,0.09-4.72-2.02-4.7-4.66c0.02-2.57,1.98-4.52,4.55-4.52
		C688.71,153.62,690.76,155.61,690.79,158.11z"/>
	<path class="st0" d="M686.15,77.01c2.46-0.01,4.59,2.06,4.64,4.53c0.06,2.59-2.07,4.69-4.71,4.65c-2.57-0.04-4.49-2.02-4.47-4.6
		C681.63,79.06,683.65,77.02,686.15,77.01z"/>
	<path class="st0" d="M697.05,35.77c0.02-2.47,1.93-4.41,4.4-4.44c2.54-0.04,4.65,2.02,4.62,4.52c-0.03,2.37-2.08,4.44-4.46,4.5
		C699.12,40.4,697.03,38.31,697.05,35.77z"/>
	<path class="st0" d="M701.29,208.34c-2.45,0-4.6-2.18-4.57-4.63c0.04-2.51,2.13-4.5,4.69-4.45c2.47,0.05,4.37,1.97,4.39,4.45
		C705.82,206.26,703.79,208.35,701.29,208.34z"/>
	<path class="st0" d="M721.15,20.79c-0.05,2.56-2.09,4.48-4.68,4.4c-2.43-0.08-4.4-2.09-4.4-4.5c0-2.45,2.17-4.61,4.62-4.58
		C719.2,16.15,721.2,18.24,721.15,20.79z"/>
	<path class="st0" d="M686.24,184.16c2.38,0.04,4.39,2.07,4.42,4.45c0.03,2.49-2.05,4.54-4.57,4.5c-2.53-0.04-4.48-2.11-4.38-4.65
		C681.81,186.05,683.85,184.12,686.24,184.16z"/>
	<path class="st0" d="M686.14,55.6c-2.43-0.02-4.38-1.98-4.4-4.41c-0.02-2.52,2.07-4.54,4.58-4.46c2.42,0.08,4.34,2.11,4.29,4.52
		C690.56,53.68,688.56,55.62,686.14,55.6z"/>
	<path class="st0" d="M670.9,107.91c2.43,0.05,4.37,2.04,4.35,4.47c-0.02,2.51-2.13,4.52-4.65,4.4c-2.41-0.11-4.3-2.16-4.22-4.58
		C666.46,109.78,668.48,107.86,670.9,107.91z"/>
	<path class="st0" d="M675.26,127.53c-0.03,2.43-2.02,4.38-4.45,4.38c-2.52,0-4.53-2.1-4.43-4.62c0.09-2.41,2.13-4.32,4.55-4.25
		C673.35,123.1,675.29,125.11,675.26,127.53z"/>
	<path class="st0" d="M670.86,153.77c2.43,0.02,4.36,2.01,4.34,4.45c-0.02,2.47-1.95,4.36-4.43,4.34c-2.44-0.02-4.39-2-4.36-4.43
		C666.43,155.72,668.45,153.74,670.86,153.77z"/>
	<path class="st0" d="M705.86,20.71c-0.01,2.45-2,4.42-4.42,4.37c-2.4-0.05-4.38-2.13-4.31-4.52c0.07-2.33,1.98-4.18,4.34-4.2
		C703.98,16.34,705.87,18.21,705.86,20.71z"/>
	<path class="st0" d="M690.51,203.79c-0.01,2.5-1.91,4.36-4.42,4.31c-2.35-0.04-4.25-1.91-4.3-4.24c-0.05-2.39,1.95-4.46,4.35-4.48
		C688.55,199.36,690.52,201.33,690.51,203.79z"/>
	<path class="st0" d="M675.15,81.55c0.04,2.45-1.89,4.46-4.31,4.48c-2.4,0.01-4.43-2.02-4.42-4.41c0.01-2.33,1.89-4.24,4.23-4.31
		C673.17,77.23,675.11,79.06,675.15,81.55z"/>
	<path class="st0" d="M690.47,35.9c-0.04,2.4-1.88,4.2-4.29,4.2c-2.46,0.01-4.44-1.99-4.38-4.41c0.06-2.29,2.05-4.25,4.34-4.26
		C688.57,31.43,690.52,33.44,690.47,35.9z"/>
	<path class="st0" d="M670.78,192.96c-2.29-0.02-4.29-2.06-4.27-4.34c0.02-2.33,1.98-4.23,4.34-4.21c2.4,0.02,4.23,1.88,4.21,4.28
		C675.05,191.05,673.11,192.98,670.78,192.96z"/>
	<path class="st0" d="M655.81,108.13c2.33,0.05,4.21,2.02,4.14,4.33c-0.07,2.3-2.09,4.22-4.37,4.15c-2.32-0.07-4.17-2.04-4.11-4.37
		C651.54,109.89,653.45,108.07,655.81,108.13z"/>
	<path class="st0" d="M655.7,131.69c-2.36,0-4.22-1.87-4.22-4.22c0-2.34,1.91-4.26,4.22-4.26c2.29,0,4.26,1.97,4.26,4.26
		C659.96,129.78,658.04,131.69,655.7,131.69z"/>
	<path class="st0" d="M675.04,51.27c-0.06,2.35-1.97,4.17-4.34,4.11c-2.33-0.05-4.21-2.02-4.14-4.33c0.07-2.3,2.09-4.22,4.37-4.15
		C673.25,46.97,675.1,48.94,675.04,51.27z"/>
	<path class="st0" d="M655.66,162.36c-2.32-0.02-4.21-2-4.14-4.32c0.08-2.25,1.92-4.01,4.2-4c2.37,0.01,4.2,1.92,4.11,4.3
		C659.76,160.61,657.91,162.38,655.66,162.36z"/>
	<path class="st0" d="M670.73,207.95c-2.35-0.05-4.16-2.01-4.05-4.38c0.11-2.27,1.95-3.99,4.23-3.94c2.27,0.05,4.07,1.88,4.07,4.13
		C675,206.08,673.05,207.99,670.73,207.95z"/>
	<path class="st0" d="M659.84,81.78c-0.07,2.28-1.89,4.02-4.18,4c-2.36-0.02-4.22-1.96-4.13-4.3c0.09-2.23,1.97-4.03,4.2-4.02
		C658.07,77.47,659.91,79.41,659.84,81.78z"/>
	<path class="st0" d="M674.97,35.78c0.01,2.22-1.83,4.12-4.05,4.18c-2.34,0.06-4.23-1.85-4.19-4.23c0.04-2.31,1.81-4.03,4.13-4.02
		C673.13,31.73,674.96,33.53,674.97,35.78z"/>
	<path class="st0" d="M655.42,184.56c2.19-0.03,4.14,1.91,4.14,4.1c0,2.24-1.89,4.05-4.17,4.02c-2.22-0.03-3.91-1.71-3.96-3.92
		C651.39,186.48,653.18,184.58,655.42,184.56z"/>
	<path class="st0" d="M659.7,51.24c-0.04,2.17-1.81,3.96-3.96,3.98c-2.2,0.03-4.14-1.93-4.1-4.13c0.05-2.24,1.97-4.02,4.25-3.93
		C658.08,47.25,659.74,49.03,659.7,51.24z"/>
	<path class="st0" d="M644.32,127.37c0.04,2.18-1.65,4-3.82,4.1c-2.22,0.1-4.18-1.8-4.16-4.03c0.02-2.16,1.8-3.93,3.97-3.95
		C642.5,123.47,644.28,125.19,644.32,127.37z"/>
	<path class="st0" d="M640.38,108.34c2.16,0.02,3.93,1.81,3.94,3.98c0.02,2.28-1.84,4.08-4.13,4c-2.17-0.08-3.92-1.92-3.86-4.07
		C636.39,110.12,638.25,108.32,640.38,108.34z"/>
	<path class="st0" d="M644.3,158.29c-0.06,2.18-1.89,3.9-4.06,3.84c-2.19-0.06-3.9-1.88-3.83-4.07c0.07-2.19,1.87-3.89,4.06-3.83
		C642.63,154.29,644.36,156.12,644.3,158.29z"/>
	<path class="st0" d="M651.51,203.48c0.15-2.16,2.06-3.81,4.23-3.65c2.18,0.16,3.8,2.04,3.64,4.23c-0.16,2.2-2.03,3.81-4.22,3.65
		C652.99,207.54,651.36,205.66,651.51,203.48z"/>
	<path class="st0" d="M640.23,85.58c-2.17-0.06-3.87-1.87-3.81-4.06c0.06-2.2,1.84-3.88,4.04-3.81c2.19,0.07,3.89,1.86,3.82,4.04
		C644.22,83.92,642.39,85.64,640.23,85.58z"/>
	<path class="st0" d="M655.7,39.69c-2.23,0-3.92-1.72-3.88-3.95c0.03-2.11,1.68-3.8,3.77-3.86c2.15-0.06,4,1.71,4.03,3.87
		C659.66,37.93,657.91,39.69,655.7,39.69z"/>
	<path class="st0" d="M640.35,184.86c2.11,0,3.82,1.66,3.86,3.73c0.04,2.1-1.88,3.99-3.98,3.92c-2.07-0.07-3.71-1.81-3.68-3.91
		C636.58,186.46,638.2,184.86,640.35,184.86z"/>
	<path class="st0" d="M644.18,51.13c0.02,2.07-1.71,3.79-3.81,3.8c-2.15,0.01-3.79-1.61-3.8-3.75c-0.01-2.11,1.68-3.84,3.75-3.86
		C642.35,47.31,644.16,49.1,644.18,51.13z"/>
	<path class="st0" d="M625.03,116.12c-2.07,0.02-3.79-1.7-3.77-3.8c0.01-2.02,1.57-3.63,3.58-3.71c2.09-0.08,3.88,1.57,3.93,3.64
		C628.82,114.3,627.08,116.1,625.03,116.12z"/>
	<path class="st0" d="M628.76,127.42c0.03,2.07-1.69,3.8-3.78,3.79c-2.02-0.01-3.64-1.56-3.73-3.57c-0.09-2.1,1.55-3.88,3.62-3.95
		C626.92,123.62,628.73,125.36,628.76,127.42z"/>
	<path class="st0" d="M644.08,203.81c-0.02,2-1.65,3.64-3.65,3.68c-2.11,0.04-3.81-1.64-3.8-3.75c0.02-2.1,1.78-3.78,3.87-3.69
		C642.51,200.14,644.1,201.81,644.08,203.81z"/>
	<path class="st0" d="M625.07,154.23c1.99,0.04,3.6,1.68,3.62,3.68c0.02,2.1-1.7,3.8-3.8,3.75c-1.99-0.05-3.61-1.69-3.62-3.69
		C621.27,155.87,622.98,154.18,625.07,154.23z"/>
	<path class="st0" d="M644,35.78c0.01,2.02-1.57,3.67-3.57,3.72c-2.08,0.05-3.82-1.69-3.78-3.77c0.04-2,1.69-3.59,3.71-3.58
		C642.42,32.16,643.99,33.73,644,35.78z"/>
	<path class="st0" d="M628.64,81.75c-0.06,2.05-1.67,3.58-3.72,3.55c-2.01-0.03-3.63-1.67-3.63-3.67c0.01-2.09,1.79-3.78,3.86-3.68
		C627.16,78.04,628.7,79.73,628.64,81.75z"/>
	<path class="st0" d="M628.53,188.63c0.01,1.96-1.46,3.5-3.41,3.56c-2.03,0.06-3.72-1.54-3.73-3.52c-0.01-1.95,1.76-3.67,3.7-3.61
		C626.99,185.12,628.51,186.7,628.53,188.63z"/>
	<path class="st0" d="M625.1,47.64c1.94,0.05,3.42,1.58,3.41,3.53c0,2.01-1.68,3.67-3.65,3.59c-1.85-0.07-3.47-1.74-3.47-3.58
		C621.4,49.19,623.08,47.58,625.1,47.64z"/>
	<path class="st0" d="M613.36,112.42c-0.04,1.92-1.63,3.44-3.56,3.4c-1.91-0.04-3.45-1.63-3.41-3.55c0.04-1.92,1.64-3.46,3.55-3.42
		C611.85,108.9,613.4,110.51,613.36,112.42z"/>
	<path class="st0" d="M609.92,130.96c-1.92,0.03-3.5-1.52-3.52-3.44c-0.03-1.91,1.52-3.5,3.43-3.52c1.93-0.02,3.51,1.51,3.53,3.43
		C613.39,129.33,611.83,130.93,609.92,130.96z"/>
	<path class="st0" d="M613.28,158.03c-0.05,1.94-1.65,3.44-3.56,3.35c-1.89-0.09-3.4-1.76-3.29-3.65c0.11-1.82,1.62-3.23,3.47-3.21
		C611.85,154.54,613.33,156.07,613.28,158.03z"/>
	<path class="st0" d="M628.44,35.76c0.02,1.92-1.53,3.47-3.46,3.46c-1.86-0.01-3.32-1.41-3.4-3.26c-0.08-1.94,1.4-3.55,3.32-3.6
		C626.79,32.3,628.41,33.87,628.44,35.76z"/>
	<path class="st0" d="M609.95,78.24c1.89,0.04,3.31,1.47,3.32,3.36c0.02,1.96-1.55,3.52-3.48,3.47c-1.81-0.05-3.33-1.58-3.35-3.39
		C606.41,79.75,607.98,78.2,609.95,78.24z"/>
	<path class="st0" d="M613.16,188.63c0.02,1.85-1.51,3.39-3.32,3.37c-1.79-0.02-3.37-1.66-3.32-3.43c0.05-1.72,1.51-3.16,3.25-3.2
		C611.68,185.32,613.14,186.73,613.16,188.63z"/>
	<path class="st0" d="M609.59,54.42c-1.73-0.14-3.09-1.69-3-3.41c0.1-1.83,1.75-3.27,3.56-3.1c1.76,0.17,3.06,1.67,2.97,3.43
		C613.03,53.18,611.45,54.57,609.59,54.42z"/>
	<path class="st0" d="M597.73,112.4c-0.03,1.77-1.47,3.16-3.26,3.13c-1.79-0.02-3.17-1.45-3.14-3.24c0.03-1.78,1.49-3.19,3.25-3.15
		C596.32,109.17,597.76,110.65,597.73,112.4z"/>
	<path class="st0" d="M597.73,127.47c0,1.74-1.46,3.21-3.2,3.21c-1.76,0.01-3.19-1.42-3.19-3.2c-0.01-1.79,1.39-3.2,3.19-3.2
		C596.3,124.29,597.74,125.71,597.73,127.47z"/>
	<path class="st0" d="M597.7,157.92c0.02,1.76-1.42,3.16-3.22,3.14c-1.73-0.02-3.02-1.27-3.08-3c-0.06-1.81,1.29-3.27,3.05-3.31
		C596.17,154.72,597.69,156.19,597.7,157.92z"/>
	<path class="st0" d="M613.07,35.82c-0.01,1.71-1.48,3.18-3.19,3.18c-1.74,0-3.14-1.42-3.14-3.19c0-1.8,1.36-3.15,3.16-3.14
		C611.66,32.67,613.08,34.08,613.07,35.82z"/>
	<path class="st0" d="M597.68,81.57c0.04,1.64-1.3,3.07-2.97,3.16c-1.84,0.1-3.25-1.21-3.28-3.03c-0.03-1.71,1.24-3.11,2.91-3.21
		C596.03,78.37,597.63,79.86,597.68,81.57z"/>
	<path class="st0" d="M594.57,54.15c-1.66,0.03-3.04-1.33-3.04-2.99c0-1.66,1.38-3.02,3.05-2.98c1.57,0.03,2.86,1.29,2.92,2.87
		C597.56,52.73,596.25,54.12,594.57,54.15z"/>
	<path class="st0" d="M582.01,127.5c-0.02,1.65-1.25,2.84-2.9,2.82c-1.61-0.02-2.9-1.33-2.87-2.9c0.03-1.53,1.43-2.89,2.95-2.87
		C580.77,124.57,582.03,125.89,582.01,127.5z"/>
	<path class="st0" d="M582,112.29c0.03,1.6-1.22,2.93-2.78,2.96c-1.5,0.03-2.92-1.33-2.96-2.84c-0.05-1.55,1.24-2.87,2.83-2.91
		C580.73,109.48,581.97,110.66,582,112.29z"/>
	<path class="st0" d="M579.28,155.14c1.53,0.06,2.68,1.27,2.68,2.81c0,1.61-1.36,2.92-2.92,2.84c-1.45-0.07-2.73-1.41-2.73-2.85
		C576.3,156.37,577.68,155.08,579.28,155.14z"/>
	<path class="st0" d="M576.54,51.24c-0.04-1.49,0.98-2.6,2.45-2.69c1.53-0.09,2.83,1.07,2.86,2.56c0.03,1.46-1.28,2.77-2.73,2.74
		C577.72,53.83,576.57,52.66,576.54,51.24z"/>
	<path class="st0" d="M564.09,124.93c1.44,0.03,2.55,1.21,2.49,2.65c-0.05,1.33-1.15,2.42-2.47,2.46c-1.37,0.04-2.64-1.18-2.64-2.56
		C561.46,126.07,562.67,124.9,564.09,124.93z"/>
	<path class="st0" d="M566.54,158c-0.03,1.4-1.28,2.53-2.67,2.43c-1.32-0.09-2.34-1.21-2.31-2.55c0.03-1.34,1.09-2.4,2.43-2.43
		C565.42,155.43,566.58,156.58,566.54,158z"/>
	<path class="st0" d="M564.13,53.46c-1.27,0.04-2.31-0.9-2.38-2.16c-0.08-1.33,1.03-2.5,2.34-2.47c1.21,0.02,2.28,1.1,2.29,2.31
		C566.39,52.36,565.37,53.42,564.13,53.46z"/>
	<path class="st0" d="M548.74,125.38c1.2,0.03,2.08,0.95,2.04,2.15c-0.03,1.16-1.04,2.13-2.16,2.09c-1.08-0.04-2.11-1.13-2.08-2.21
		C546.57,126.27,547.57,125.35,548.74,125.38z"/>
	<path class="st0" d="M550.73,157.84c0.06,1.18-0.88,2.15-2.06,2.14c-1.08-0.01-1.98-0.87-2.03-1.94c-0.06-1.15,0.91-2.17,2.07-2.16
		C549.77,155.89,550.68,156.77,550.73,157.84z"/>
	<path class="st0" d="M548.81,52.97c-1,0.06-1.87-0.69-1.94-1.69c-0.07-0.98,0.72-1.89,1.69-1.96c0.92-0.06,1.88,0.79,1.95,1.72
		C550.59,52.02,549.81,52.9,548.81,52.97z"/>
</g>
</svg>
