<?xml version="1.0" encoding="utf-8"?>
<!-- Generator: Adobe Illustrator 23.1.0, SVG Export Plug-In . SVG Version: 6.00 Build 0)  -->
<svg version="1.1" id="Слой_1" xmlns="http://www.w3.org/2000/svg" xmlns:xlink="http://www.w3.org/1999/xlink" x="0px" y="0px"
	 viewBox="0 0 841.89 595.28" style="enable-background:new 0 0 841.89 595.28;" xml:space="preserve">
<style type="text/css">
	.st0{fill:#319275;}
</style>
<path class="st0" d="M830.25,375.91c-4.58-0.07-8.34,3.6-8.37,8.18c-0.03,4.58,3.69,8.32,8.26,8.3c4.44-0.02,8.08-3.57,8.21-8.03
	C838.49,379.8,834.83,375.98,830.25,375.91z"/>
<path class="st0" d="M821.61,363.01c0.01,4.62,3.76,8.28,8.37,8.18c4.43-0.1,8.02-3.79,8.01-8.23c-0.01-4.6-3.78-8.26-8.4-8.15
	C825.09,354.91,821.59,358.5,821.61,363.01z"/>
<path class="st0" d="M830.03,413.77c4.55,0.04,8.13-3.44,8.21-7.97c0.08-4.65-3.61-8.39-8.23-8.34c-4.43,0.05-8.09,3.75-8.09,8.19
	C821.93,410.13,825.52,413.73,830.03,413.77z"/>
<path class="st0" d="M829.64,333.41c-4.57,0.07-7.99,3.62-7.92,8.22c0.07,4.51,3.74,8.09,8.22,8c4.43-0.09,8.08-3.88,8-8.29
	C837.85,336.86,834.17,333.34,829.64,333.41z"/>
<path class="st0" d="M808.74,392.1c4.53-0.06,7.97-3.69,7.83-8.25c-0.13-4.31-3.8-7.83-8.08-7.74c-4.27,0.08-7.88,3.74-7.91,7.99
	C800.55,388.53,804.26,392.16,808.74,392.1z"/>
<path class="st0" d="M821.83,320.15c-0.08,4.54,3.42,8.12,7.95,8.12c4.33,0,7.91-3.47,8.02-7.79c0.11-4.34-3.66-8.19-8.03-8.19
	C825.48,312.29,821.9,315.83,821.83,320.15z"/>
<path class="st0" d="M816.57,363.15c0.08-4.55-3.42-8.12-7.96-8.13c-4.34,0-7.92,3.47-8.04,7.79c-0.11,4.34,3.67,8.21,8.04,8.2
	C812.92,371.02,816.5,367.48,816.57,363.15z"/>
<path class="st0" d="M808.46,413.57c4.4,0.07,7.96-3.31,8.08-7.68c0.12-4.49-3.48-8.23-7.93-8.22c-4.3,0.01-7.92,3.6-7.97,7.9
	C800.59,409.88,804.12,413.49,808.46,413.57z"/>
<path class="st0" d="M808.55,333.57c-4.33,0.03-7.85,3.57-7.87,7.9c-0.01,4.3,3.53,7.9,7.84,7.95c4.45,0.06,8.09-3.62,8-8.09
	C816.45,336.98,812.9,333.54,808.55,333.57z"/>
<path class="st0" d="M787.27,370.69c4.25-0.07,7.64-3.49,7.65-7.69c0.01-4.28-3.67-7.9-7.94-7.82c-4.35,0.08-7.7,3.68-7.56,8.11
	C779.55,367.57,782.94,370.76,787.27,370.69z"/>
<path class="st0" d="M800.87,320.26c-0.02,4.43,3.49,7.96,7.85,7.89c4.19-0.06,7.68-3.57,7.72-7.75c0.05-4.36-3.49-7.86-7.92-7.82
	C804.2,312.61,800.9,315.93,800.87,320.26z"/>
<path class="st0" d="M786.96,376.44c-4.31,0.07-7.55,3.38-7.55,7.71c0,4.39,3.56,7.91,7.88,7.8c4.16-0.11,7.62-3.65,7.63-7.79
	C794.93,379.82,791.37,376.37,786.96,376.44z"/>
<path class="st0" d="M837.52,298.89c0.04-4.33-3.22-7.71-7.53-7.81c-4.44-0.11-8.02,3.31-8.05,7.69c-0.03,4.31,3.61,7.94,7.93,7.88
	C834.11,306.59,837.49,303.17,837.52,298.89z"/>
<path class="st0" d="M779.45,405.5c-0.06,4.29,3.21,7.77,7.44,7.92c4.23,0.15,8.01-3.52,8-7.78c0-4.21-3.44-7.63-7.7-7.67
	C782.86,397.94,779.51,401.19,779.45,405.5z"/>
<path class="st0" d="M779.46,341.41c-0.04,4.29,3.24,7.67,7.51,7.73c4.39,0.06,7.97-3.45,7.9-7.76c-0.07-4.13-3.64-7.65-7.76-7.65
	C782.92,333.73,779.5,337.16,779.46,341.41z"/>
<path class="st0" d="M808.6,291.22c-4.28,0-7.64,3.42-7.59,7.7c0.05,4.11,3.36,7.47,7.45,7.56c4.16,0.1,7.77-3.41,7.82-7.59
	C816.34,294.69,812.85,291.21,808.6,291.22z"/>
<path class="st0" d="M787.09,312.74c-4.24,0.01-7.61,3.44-7.55,7.69c0.05,4.08,3.36,7.41,7.44,7.5c4.18,0.09,7.71-3.35,7.75-7.55
	C794.77,316.18,791.31,312.73,787.09,312.74z"/>
<path class="st0" d="M830.01,121.63c-4.22-0.07-7.71,3.32-7.75,7.52c-0.04,4.19,3.44,7.68,7.64,7.67c4.07-0.02,7.44-3.31,7.55-7.39
	C837.55,125.18,834.23,121.7,830.01,121.63z"/>
<path class="st0" d="M765.84,377c-4.16,0.06-7.38,3.35-7.36,7.53c0.02,4.13,3.33,7.45,7.44,7.48c4.22,0.02,7.68-3.51,7.56-7.73
	C773.36,380.17,769.97,376.94,765.84,377z"/>
<path class="st0" d="M758.48,363.04c0.03,4.13,3.35,7.45,7.46,7.46c4.22,0.02,7.67-3.53,7.54-7.74c-0.12-4.11-3.52-7.33-7.66-7.27
	C761.66,355.57,758.45,358.87,758.48,363.04z"/>
<path class="st0" d="M758.53,405.55c-0.04,4.22,3.14,7.48,7.34,7.52c4.15,0.04,7.53-3.24,7.58-7.35c0.05-4.07-3.33-7.52-7.41-7.58
	C761.93,398.09,758.58,401.4,758.53,405.55z"/>
<path class="st0" d="M787.08,306.23c4.21,0.02,7.44-3.18,7.45-7.39c0.01-4.15-3.29-7.5-7.39-7.51c-4.06-0.01-7.49,3.39-7.51,7.45
	C779.61,302.88,782.94,306.21,787.08,306.23z"/>
<path class="st0" d="M758.54,341.41c-0.04,4.15,3.23,7.52,7.34,7.57c4.06,0.04,7.51-3.34,7.56-7.4c0.05-4.11-3.26-7.46-7.4-7.5
	C761.83,334.03,758.58,337.21,758.54,341.41z"/>
<path class="st0" d="M808.82,136.62c4.2-0.06,7.35-3.32,7.29-7.55c-0.06-4.14-3.44-7.44-7.54-7.36c-4.07,0.08-7.43,3.55-7.36,7.61
	C801.28,133.43,804.67,136.68,808.82,136.62z"/>
<path class="st0" d="M822.55,108.08c0.02,4,3.21,7.28,7.19,7.37c4,0.09,7.56-3.43,7.54-7.44c-0.02-4.1-3.45-7.38-7.61-7.28
	C825.61,100.82,822.53,104.01,822.55,108.08z"/>
<path class="st0" d="M758.62,320.15c-0.08,4.22,3.07,7.47,7.26,7.5c4.14,0.03,7.51-3.27,7.5-7.35c-0.01-3.88-3.29-7.26-7.18-7.42
	C762.15,312.73,758.7,316.04,758.62,320.15z"/>
<path class="st0" d="M787.04,136.47c4.03,0.08,7.3-3.02,7.42-7.02c0.12-4.14-3.17-7.56-7.26-7.56c-3.91,0-7.27,3.32-7.31,7.24
	C779.84,133.08,783.06,136.39,787.04,136.47z"/>
<path class="st0" d="M744.62,377.23c-4.01-0.08-7.29,3.02-7.41,7c-0.13,4.13,3.15,7.55,7.25,7.55c3.92,0,7.25-3.3,7.3-7.22
	C751.8,380.61,748.59,377.31,744.62,377.23z"/>
<path class="st0" d="M758.72,298.9c0.04,4,3.31,7.19,7.32,7.15c3.99-0.04,7.22-3.33,7.17-7.31c-0.05-3.97-3.38-7.24-7.34-7.18
	C761.88,291.61,758.68,294.91,758.72,298.9z"/>
<path class="st0" d="M744.44,412.87c3.99,0.01,7.24-3.22,7.25-7.21c0.01-3.97-3.25-7.25-7.23-7.25c-3.99,0-7.23,3.24-7.24,7.23
	C737.23,409.63,740.45,412.86,744.44,412.87z"/>
<path class="st0" d="M808.78,100.81c-4-0.04-7.29,3.16-7.34,7.15c-0.05,3.96,3.21,7.29,7.18,7.34c3.98,0.04,7.27-3.19,7.31-7.18
	C815.97,104.11,812.78,100.85,808.78,100.81z"/>
<path class="st0" d="M744.3,348.67c4.03,0.09,7.3-3.1,7.34-7.13c0.03-3.89-3.01-7.11-6.87-7.26c-3.99-0.16-7.38,2.98-7.52,6.97
	C737.12,345.25,740.29,348.59,744.3,348.67z"/>
<path class="st0" d="M830.22,240.96c3.96,0.03,7.03-2.92,7.13-6.86c0.1-4.06-3.03-7.34-7.02-7.37c-3.94-0.03-7.26,3.32-7.2,7.26
	C823.18,237.85,826.32,240.93,830.22,240.96z"/>
<path class="st0" d="M751.52,320.21c-0.05-3.95-3.07-6.94-7.03-6.96c-4.03-0.02-7.27,3.23-7.19,7.2c0.08,3.81,3.29,6.99,7.1,7.03
	C748.39,327.51,751.58,324.25,751.52,320.21z"/>
<path class="st0" d="M780.18,108.04c0,3.98,2.98,7,6.95,7.03c3.91,0.03,7.1-3.02,7.2-6.87c0.09-3.92-3.28-7.33-7.2-7.28
	C783.28,100.96,780.18,104.14,780.18,108.04z"/>
<path class="st0" d="M744.45,291.83c-3.88,0.01-7.08,3.17-7.08,6.99c0.01,3.78,3.3,7.07,7.08,7.07c3.82,0,6.98-3.19,6.99-7.08
	C751.45,294.87,748.4,291.83,744.45,291.83z"/>
<path class="st0" d="M802.13,233.79c-0.05,3.96,2.96,7.05,6.9,7.08c3.9,0.03,7.11-3.06,7.17-6.9c0.05-3.76-3.21-7.1-6.98-7.17
	C805.4,226.74,802.18,229.92,802.13,233.79z"/>
<path class="st0" d="M773.07,129.25c0.02-3.98-2.95-7.02-6.92-7.07c-3.91-0.05-7.12,2.97-7.24,6.83c-0.12,3.91,3.24,7.34,7.16,7.32
	C769.92,136.31,773.05,133.14,773.07,129.25z"/>
<path class="st0" d="M723.1,391.43c3.93-0.06,6.93-3.22,6.81-7.19c-0.11-3.74-3.22-6.8-6.93-6.81c-3.78-0.01-7.1,3.32-7.06,7.1
	C715.96,388.39,719.19,391.5,723.1,391.43z"/>
<path class="st0" d="M729.89,405.64c0-3.91-3.11-6.98-7.03-6.93c-3.74,0.04-6.81,3.05-6.91,6.77c-0.1,3.77,3.13,7.11,6.92,7.17
	C726.69,412.71,729.89,409.51,729.89,405.64z"/>
<path class="st0" d="M722.87,348.41c3.9,0.05,7.02-3.02,7.02-6.92c0-3.87-3.19-7.05-7.01-7c-3.67,0.05-6.8,3.14-6.91,6.82
	C715.85,345.11,719.01,348.36,722.87,348.41z"/>
<path class="st0" d="M765.92,101.11c-3.86,0.08-6.97,3.4-6.79,7.23c0.18,3.75,3.29,6.66,7.05,6.6c3.87-0.07,6.92-3.3,6.76-7.19
	C772.78,104.02,769.63,101.04,765.92,101.11z"/>
<path class="st0" d="M744.53,122.33c-3.77,0.01-6.79,3.02-6.84,6.8c-0.04,3.78,2.93,6.85,6.7,6.93c3.9,0.08,7.07-3.07,7.01-6.96
	C751.36,125.37,748.26,122.32,744.53,122.33z"/>
<path class="st0" d="M716.08,320.44c0.07,3.76,3.16,6.78,6.93,6.75c3.91-0.03,6.99-3.27,6.83-7.17c-0.15-3.73-3.34-6.69-7.08-6.58
	C718.99,313.55,716.01,316.68,716.08,320.44z"/>
<path class="st0" d="M780.75,234.04c0.07,3.73,3.19,6.76,6.92,6.73c3.9-0.03,6.96-3.26,6.79-7.17c-0.16-3.78-3.29-6.67-7.07-6.55
	C783.61,227.17,780.68,230.26,780.75,234.04z"/>
<path class="st0" d="M830.27,219.26c3.73,0.01,6.83-3.04,6.88-6.77c0.05-3.9-3.12-7.04-7.02-6.96c-3.77,0.08-6.75,3.16-6.7,6.93
	C823.47,216.25,826.5,219.25,830.27,219.26z"/>
<path class="st0" d="M815.84,212.35c-0.03-3.87-2.99-6.75-6.88-6.68c-3.67,0.06-6.6,2.98-6.67,6.62c-0.06,3.7,3.07,6.9,6.78,6.92
	C812.85,219.22,815.87,216.17,815.84,212.35z"/>
<path class="st0" d="M716.23,298.84c0.01,3.87,2.97,6.76,6.85,6.71c3.67-0.05,6.61-2.95,6.69-6.6c0.08-3.7-3.04-6.91-6.75-6.94
	C719.24,291.97,716.22,295.02,716.23,298.84z"/>
<path class="st0" d="M708.48,384.38c-0.05-3.84-3.02-6.67-6.89-6.58c-3.63,0.09-6.55,3.03-6.58,6.64c-0.03,3.66,3.14,6.85,6.8,6.83
	C705.56,391.25,708.53,388.17,708.48,384.38z"/>
<path class="st0" d="M744.42,101.39c-3.83,0.06-6.67,3.09-6.52,6.96c0.13,3.61,3.21,6.53,6.79,6.44c3.54-0.08,6.59-3.17,6.61-6.71
	C751.32,104.36,748.2,101.33,744.42,101.39z"/>
<path class="st0" d="M701.73,334.83c-3.64,0.02-6.62,2.95-6.69,6.55c-0.07,3.64,3.16,6.89,6.81,6.85c3.6-0.04,6.55-3,6.6-6.64
	C708.5,337.73,705.59,334.81,701.73,334.83z"/>
<path class="st0" d="M772.77,233.86c-0.02-3.86-2.98-6.72-6.86-6.62c-3.62,0.09-6.57,3.1-6.54,6.69c0.03,3.66,3.32,6.84,6.95,6.71
	C769.93,240.51,772.79,237.52,772.77,233.86z"/>
<path class="st0" d="M701.88,412.3c3.85-0.04,6.69-3.04,6.57-6.91c-0.11-3.61-3.16-6.54-6.74-6.49c-3.53,0.06-6.6,3.13-6.66,6.66
	C694.99,409.28,698.1,412.34,701.88,412.3z"/>
<path class="st0" d="M794.23,212.18c-0.1-3.68-3.04-6.47-6.75-6.41c-3.62,0.06-6.61,3.09-6.57,6.67c0.03,3.68,3.37,6.84,7,6.64
	C791.55,218.89,794.34,215.84,794.23,212.18z"/>
<path class="st0" d="M716.43,129.51c0.15,3.68,3.12,6.42,6.84,6.32c3.61-0.1,6.57-3.19,6.48-6.76c-0.1-3.69-3.47-6.8-7.09-6.55
	C719.02,122.77,716.29,125.84,716.43,129.51z"/>
<path class="st0" d="M695.15,320.27c-0.03,3.6,2.97,6.62,6.6,6.64c3.69,0.02,6.61-2.86,6.64-6.54c0.02-3.64-2.93-6.67-6.54-6.7
	C698.28,313.63,695.18,316.69,695.15,320.27z"/>
<path class="st0" d="M830.16,197.82c3.64,0.06,6.7-2.86,6.77-6.48c0.07-3.56-2.94-6.69-6.54-6.76c-3.6-0.08-6.65,2.89-6.71,6.53
	C823.63,194.81,826.48,197.76,830.16,197.82z"/>
<path class="st0" d="M744.98,240.39c3.67-0.01,6.55-2.95,6.48-6.62c-0.06-3.51-2.89-6.35-6.38-6.41c-3.63-0.06-6.62,2.85-6.66,6.47
	C738.39,237.46,741.33,240.4,744.98,240.39z"/>
<path class="st0" d="M802.61,191.28c0.03,3.64,3.02,6.56,6.64,6.48c3.62-0.08,6.5-3.11,6.39-6.74c-0.1-3.48-2.97-6.27-6.48-6.3
	C805.49,184.7,802.58,187.61,802.61,191.28z"/>
<path class="st0" d="M722.93,114.48c3.58,0.06,6.41-2.62,6.54-6.18c0.13-3.68-2.71-6.71-6.34-6.76c-3.61-0.05-6.62,2.95-6.59,6.56
	C716.57,111.6,719.4,114.42,722.93,114.48z"/>
<path class="st0" d="M759.68,212.42c0.01,3.58,2.74,6.35,6.31,6.41c3.69,0.06,6.65-2.84,6.63-6.47c-0.03-3.6-3.1-6.57-6.69-6.46
	C762.43,206,759.67,208.87,759.68,212.42z"/>
<path class="st0" d="M680.21,412.12c3.44,0.05,6.45-2.82,6.56-6.28c0.12-3.63-2.83-6.6-6.53-6.58c-3.6,0.03-6.32,2.77-6.33,6.37
	C673.91,409.19,676.7,412.06,680.21,412.12z"/>
<path class="st0" d="M673.91,384.36c-0.06,3.61,2.61,6.42,6.2,6.5c3.71,0.09,6.7-2.81,6.66-6.44c-0.04-3.45-2.98-6.38-6.43-6.41
	C676.84,377.98,673.97,380.81,673.91,384.36z"/>
<path class="st0" d="M695.54,129.17c-0.02,3.57,2.79,6.45,6.3,6.48c3.44,0.02,6.44-2.93,6.48-6.38c0.04-3.5-2.83-6.37-6.38-6.4
	C698.32,122.84,695.56,125.55,695.54,129.17z"/>
<path class="st0" d="M787.57,197.66c3.44,0.02,6.44-2.93,6.49-6.37c0.04-3.5-2.82-6.37-6.37-6.4c-3.62-0.03-6.38,2.68-6.4,6.3
	C781.25,194.75,784.06,197.64,787.57,197.66z"/>
<path class="st0" d="M680.35,326.72c3.44-0.03,6.43-3.11,6.35-6.52c-0.08-3.52-3.03-6.28-6.6-6.18c-3.45,0.09-6.09,2.81-6.1,6.27
	C673.98,323.84,676.85,326.75,680.35,326.72z"/>
<path class="st0" d="M745.12,206.04c-3.44-0.11-6.51,2.89-6.52,6.34c-0.01,3.37,2.77,6.19,6.18,6.27c3.46,0.09,6.28-2.52,6.44-5.94
	C751.39,209.15,748.65,206.15,745.12,206.04z"/>
<path class="st0" d="M723.35,227.54c-3.46,0.07-6.41,3.2-6.24,6.62c0.17,3.41,3,6.05,6.44,6c3.58-0.05,6.31-2.94,6.17-6.54
	C729.59,230.22,726.71,227.46,723.35,227.54z"/>
<path class="st0" d="M695.64,108.03c-0.01,3.41,2.66,6.17,6.06,6.26c3.53,0.09,6.46-2.73,6.47-6.22c0.01-3.46-2.99-6.4-6.44-6.3
	C698.35,101.85,695.65,104.63,695.64,108.03z"/>
<path class="st0" d="M766.12,184.99c-3.41,0-6.16,2.67-6.24,6.07c-0.09,3.53,2.74,6.46,6.24,6.46c3.33,0,6.19-2.78,6.29-6.12
	C772.52,187.92,769.64,184.99,766.12,184.99z"/>
<path class="st0" d="M658.66,378.42c-3.42,0.06-6.14,2.9-6.01,6.29c0.13,3.23,2.88,5.9,6.1,5.92c3.39,0.03,6.14-2.75,6.12-6.19
	C664.85,380.95,662.17,378.35,658.66,378.42z"/>
<path class="st0" d="M652.65,405.67c0.02,3.39,2.82,6.1,6.26,6.04c3.36-0.05,5.9-2.59,5.96-5.95c0.06-3.43-2.64-6.25-6.03-6.27
	C655.49,399.47,652.64,402.32,652.65,405.67z"/>
<path class="st0" d="M717.44,212.54c0.07,3.3,2.73,5.95,5.99,5.97c3.33,0.02,6.22-2.92,6.14-6.24c-0.08-3.4-2.95-6.03-6.41-5.89
	C719.82,206.52,717.37,209.15,717.44,212.54z"/>
<path class="st0" d="M696.18,233.84c-0.04,3.33,2.89,6.23,6.21,6.17c3.27-0.06,5.89-2.74,5.92-6.04c0.03-3.38-2.44-5.98-5.79-6.09
	C699.06,227.77,696.22,230.44,696.18,233.84z"/>
<path class="st0" d="M744.81,185.11c-3.39,0.09-6.02,2.97-5.87,6.43c0.14,3.34,2.78,5.78,6.17,5.7c3.3-0.08,5.95-2.74,5.95-6.01
	C751.08,187.9,748.13,185.02,744.81,185.11z"/>
<path class="st0" d="M652.72,320.41c0.06,3.26,2.79,5.89,6.09,5.89c3.5-0.01,6.1-2.73,5.97-6.25c-0.12-3.28-2.94-5.92-6.17-5.8
	C655.4,314.37,652.66,317.23,652.72,320.41z"/>
<path class="st0" d="M680.42,102.1c-3.31-0.02-6.04,2.64-6.06,5.91c-0.02,3.19,2.79,6.04,5.99,6.06c3.26,0.03,5.97-2.68,5.98-5.99
	C686.34,104.72,683.77,102.12,680.42,102.1z"/>
<path class="st0" d="M696.41,212.39c0,3.26,2.73,5.94,5.98,5.89c3.14-0.05,5.71-2.59,5.78-5.73c0.08-3.28-2.53-5.99-5.8-6.04
	C699.1,206.47,696.41,209.12,696.41,212.39z"/>
<path class="st0" d="M717.58,191.13c-0.05,3.28,2.59,5.96,5.86,5.98c3.28,0.01,5.94-2.67,5.9-5.94c-0.04-3.14-2.56-5.71-5.71-5.82
	C720.36,185.24,717.63,187.86,717.58,191.13z"/>
<path class="st0" d="M631.81,405.49c-0.08,3.14,2.44,5.84,5.58,5.98c3.31,0.15,6.03-2.48,6.03-5.83c0-3.24-2.48-5.74-5.71-5.78
	C634.48,399.84,631.89,402.32,631.81,405.49z"/>
<path class="st0" d="M675.02,233.79c-0.05,3.24,2.39,5.79,5.61,5.87c3.22,0.08,5.86-2.35,6-5.52c0.14-3.27-2.54-6.08-5.82-6.09
	C677.64,228.04,675.07,230.59,675.02,233.79z"/>
<path class="st0" d="M631.8,384.63c0.08,3.28,2.83,5.81,6.15,5.64c3.18-0.16,5.57-2.75,5.49-5.95c-0.08-3.17-2.64-5.68-5.79-5.68
	C634.39,378.63,631.72,381.37,631.8,384.63z"/>
<path class="st0" d="M637.54,314.64c-3.18,0.04-5.75,2.65-5.68,5.78c0.06,3.1,2.77,5.72,5.85,5.68c3.14-0.04,5.64-2.65,5.6-5.85
	C643.28,316.99,640.81,314.59,637.54,314.64z"/>
<path class="st0" d="M658.85,102.31c-3.13,0.02-5.66,2.66-5.6,5.86c0.05,3.11,2.41,5.47,5.52,5.52c3.19,0.06,5.83-2.47,5.86-5.6
	C664.64,105.01,661.92,102.28,658.85,102.31z"/>
<path class="st0" d="M675.21,212.52c0.06,3.07,2.48,5.45,5.56,5.46c3.16,0.01,5.79-2.63,5.7-5.73c-0.09-2.96-2.68-5.51-5.63-5.53
	C677.72,206.7,675.15,209.35,675.21,212.52z"/>
<path class="st0" d="M696.7,191.2c-0.01,3.17,2.64,5.81,5.74,5.72c2.96-0.09,5.52-2.7,5.55-5.65c0.03-3.12-2.63-5.7-5.81-5.64
	C699.08,185.69,696.71,188.1,696.7,191.2z"/>
<path class="st0" d="M659.36,228.36c-3.05-0.03-5.56,2.42-5.59,5.47c-0.04,3.04,2.42,5.56,5.46,5.59c3.06,0.03,5.55-2.4,5.59-5.46
	C664.86,230.89,662.43,228.4,659.36,228.36z"/>
<path class="st0" d="M610.71,384.53c0.02,3.09,2.51,5.52,5.57,5.45c3.01-0.07,5.47-2.69,5.36-5.7c-0.11-2.92-2.49-5.21-5.44-5.24
	C613.07,379.02,610.68,381.41,610.71,384.53z"/>
<path class="st0" d="M616,400.15c-3.05,0.08-5.41,2.63-5.29,5.73c0.12,3.1,2.63,5.37,5.76,5.2c2.94-0.16,5.21-2.58,5.17-5.51
	C621.59,402.55,619,400.06,616,400.15z"/>
<path class="st0" d="M637.66,113.49c2.82,0.05,5.37-2.36,5.51-5.2c0.15-3.02-2.28-5.57-5.36-5.61c-3.01-0.04-5.33,2.15-5.44,5.13
	C632.26,110.91,634.62,113.45,637.66,113.49z"/>
<path class="st0" d="M675.38,191.19c-0.02,2.91,2.35,5.3,5.29,5.36c3.02,0.06,5.36-2.14,5.45-5.13c0.09-3.1-2.34-5.64-5.38-5.61
	C677.89,185.84,675.4,188.34,675.38,191.19z"/>
<path class="st0" d="M632.93,233.89c-0.01,2.8,2.23,5.13,5.04,5.23c2.92,0.1,5.39-2.3,5.39-5.22c0-2.8-2.26-5.12-5.06-5.21
	C635.35,228.6,632.94,230.93,632.93,233.89z"/>
<path class="st0" d="M659.2,186.18c-2.89,0.05-5.02,2.26-4.96,5.17c0.05,2.82,2.4,5.09,5.17,5.02c2.77-0.07,5.07-2.47,5.01-5.23
	C664.38,188.33,662.06,186.13,659.2,186.18z"/>
<path class="st0" d="M611.11,108.02c-0.02,2.78,2.27,5.05,5.1,5.06c2.9,0.01,5.05-2.14,5.06-5.03c0-2.83-2.25-5.13-5.03-5.12
	C613.48,102.92,611.12,105.27,611.11,108.02z"/>
<path class="st0" d="M589.49,384.67c0.11,2.79,2.44,4.96,5.27,4.9c2.99-0.06,5.17-2.46,4.97-5.48c-0.19-2.81-2.59-4.94-5.38-4.77
	C591.58,379.49,589.38,381.91,589.49,384.67z"/>
<path class="st0" d="M595.07,410.81c2.77-0.05,5.06-2.38,5.06-5.15c0.01-2.92-2.44-5.23-5.4-5.1c-2.86,0.12-4.95,2.39-4.86,5.27
	C589.97,408.63,592.3,410.86,595.07,410.81z"/>
<path class="st0" d="M611.69,233.77c-0.07,2.64,2.07,4.91,4.74,5.02c2.69,0.11,4.96-1.94,5.1-4.6c0.15-2.82-2.06-5.21-4.85-5.24
	C614.07,228.92,611.76,231.14,611.69,233.77z"/>
<path class="st0" d="M638.23,186.4c-2.69-0.05-4.86,2.1-4.87,4.82c0,2.61,1.94,4.66,4.54,4.78c2.72,0.13,4.98-1.93,5.07-4.62
	C643.06,188.74,640.88,186.45,638.23,186.4z"/>
<path class="st0" d="M578.17,405.25c-0.19-2.57-2.46-4.57-5-4.39c-2.53,0.17-4.59,2.48-4.47,4.99c0.13,2.72,2.46,4.71,5.24,4.48
	C576.56,410.1,578.37,407.94,578.17,405.25z"/>
<path class="st0" d="M568.69,384.41c-0.05,2.52,2.08,4.76,4.61,4.86c2.56,0.1,4.75-1.93,4.87-4.53c0.14-2.83-1.9-4.97-4.71-4.96
	C570.85,379.78,568.74,381.83,568.69,384.41z"/>
<path class="st0" d="M595.18,229.35c-2.59-0.02-4.65,2.07-4.58,4.67c0.06,2.43,2.07,4.43,4.5,4.45c2.54,0.03,4.7-2.16,4.62-4.7
	C599.64,231.33,597.62,229.36,595.18,229.35z"/>
<path class="st0" d="M612.14,191.16c-0.03,2.44,1.98,4.52,4.42,4.57c2.46,0.05,4.5-1.93,4.54-4.42c0.04-2.51-1.89-4.51-4.4-4.54
	C614.2,186.74,612.17,188.69,612.14,191.16z"/>
<path class="st0" d="M547.67,384.56c0.04,2.41,1.83,4.2,4.25,4.23c2.49,0.03,4.54-1.99,4.48-4.41c-0.06-2.23-2.1-4.26-4.33-4.31
	C549.64,380.01,547.63,382.07,547.67,384.56z"/>
<path class="st0" d="M552.07,401.36c-2.41-0.04-4.29,1.73-4.36,4.12c-0.08,2.48,1.95,4.59,4.37,4.53c2.25-0.06,4.27-2.12,4.27-4.37
	C556.35,403.35,554.41,401.41,552.07,401.36z"/>
<path class="st0" d="M591.08,191.11c-0.06,2.31,1.6,4.1,3.88,4.19c2.26,0.09,4.15-1.59,4.31-3.81c0.16-2.3-1.77-4.38-4.09-4.4
	C592.95,187.08,591.14,188.86,591.08,191.11z"/>
<path class="st0" d="M526.95,405.67c0.01,2.11,1.7,3.81,3.81,3.85c2.23,0.04,4.06-1.84,3.95-4.06c-0.1-2.08-1.92-3.78-3.99-3.71
	C528.63,401.81,526.94,403.57,526.95,405.67z"/>
<path class="st0" d="M526.93,384.41c-0.04,2.21,1.79,4.05,3.98,4c2.04-0.05,3.79-1.81,3.84-3.85c0.05-2.19-1.81-4.01-4.01-3.96
	C528.64,380.64,526.97,382.31,526.93,384.41z"/>
<path class="st0" d="M573.99,187.55c-2.1,0-3.6,1.44-3.67,3.52c-0.08,2.14,1.6,3.93,3.69,3.92c2.05-0.01,3.84-1.89,3.74-3.93
	C577.65,189.1,575.99,187.56,573.99,187.55z"/>
<path class="st0" d="M549.21,191.16c-0.04,1.71,1.38,3.21,3.12,3.28c1.78,0.08,3.25-1.22,3.37-2.99c0.13-1.86-1.4-3.51-3.24-3.5
	C550.77,187.97,549.25,189.46,549.21,191.16z"/>
<path class="st0" d="M528.25,191.38c0.09,1.46,1.46,2.61,2.96,2.49c1.54-0.12,2.58-1.41,2.4-2.98c-0.16-1.36-1.39-2.43-2.72-2.38
	C529.47,188.56,528.16,189.98,528.25,191.38z"/>
<path class="st0" d="M829.66,463.03c-4.58-0.07-8.34,3.6-8.37,8.18c-0.03,4.58,3.69,8.32,8.26,8.3c4.44-0.02,8.08-3.57,8.21-8.03
	C837.9,466.92,834.24,463.1,829.66,463.03z"/>
<path class="st0" d="M808.15,479.22c4.53-0.06,7.97-3.69,7.83-8.25c-0.13-4.31-3.8-7.83-8.08-7.74c-4.27,0.08-7.88,3.74-7.91,7.99
	C799.96,475.65,803.67,479.29,808.15,479.22z"/>
<path class="st0" d="M786.38,463.56c-4.31,0.07-7.55,3.38-7.55,7.71c0,4.39,3.56,7.91,7.88,7.8c4.16-0.11,7.62-3.65,7.63-7.79
	C794.35,466.94,790.79,463.49,786.38,463.56z"/>
<path class="st0" d="M765.25,464.12c-4.16,0.06-7.38,3.35-7.36,7.53c0.02,4.13,3.33,7.45,7.44,7.48c4.22,0.02,7.68-3.51,7.56-7.73
	C772.78,467.29,769.39,464.06,765.25,464.12z"/>
<path class="st0" d="M744.03,464.35c-4.01-0.08-7.29,3.02-7.41,7c-0.13,4.13,3.15,7.55,7.25,7.55c3.92,0,7.25-3.3,7.3-7.22
	C751.22,467.73,748,464.43,744.03,464.35z"/>
<path class="st0" d="M722.51,478.56c3.93-0.06,6.93-3.22,6.81-7.19c-0.11-3.74-3.22-6.8-6.93-6.81c-3.78-0.01-7.1,3.32-7.06,7.1
	C715.37,475.51,718.61,478.62,722.51,478.56z"/>
<path class="st0" d="M707.9,471.5c-0.05-3.84-3.02-6.67-6.89-6.58c-3.63,0.09-6.55,3.03-6.58,6.64c-0.03,3.66,3.14,6.85,6.8,6.83
	C704.97,478.37,707.95,475.3,707.9,471.5z"/>
<path class="st0" d="M673.33,471.48c-0.06,3.61,2.61,6.42,6.2,6.5c3.71,0.09,6.7-2.81,6.66-6.44c-0.04-3.45-2.98-6.38-6.43-6.41
	C676.25,465.1,673.39,467.93,673.33,471.48z"/>
<path class="st0" d="M658.08,465.54c-3.42,0.06-6.14,2.9-6.01,6.29c0.13,3.23,2.88,5.9,6.1,5.92c3.39,0.03,6.14-2.75,6.12-6.19
	C664.26,468.07,661.59,465.47,658.08,465.54z"/>
<path class="st0" d="M631.21,471.75c0.08,3.28,2.83,5.81,6.15,5.64c3.18-0.16,5.57-2.75,5.49-5.95c-0.08-3.17-2.64-5.68-5.79-5.68
	C633.8,465.76,631.13,468.49,631.21,471.75z"/>
<path class="st0" d="M610.12,471.65c0.02,3.09,2.51,5.52,5.57,5.45c3.01-0.07,5.47-2.69,5.36-5.7c-0.11-2.92-2.49-5.21-5.44-5.24
	C612.48,466.14,610.09,468.53,610.12,471.65z"/>
<path class="st0" d="M588.9,471.79c0.11,2.79,2.44,4.96,5.27,4.9c2.99-0.06,5.17-2.46,4.97-5.48c-0.19-2.81-2.59-4.94-5.38-4.77
	C590.99,466.62,588.79,469.03,588.9,471.79z"/>
<path class="st0" d="M568.11,471.53c-0.05,2.52,2.08,4.76,4.61,4.86c2.56,0.1,4.75-1.93,4.87-4.53c0.14-2.83-1.9-4.97-4.71-4.96
	C570.27,466.91,568.15,468.95,568.11,471.53z"/>
<path class="st0" d="M547.09,471.68c0.04,2.41,1.83,4.2,4.25,4.23c2.49,0.03,4.54-1.99,4.48-4.41c-0.06-2.23-2.1-4.26-4.33-4.31
	C549.06,467.14,547.05,469.19,547.09,471.68z"/>
<path class="st0" d="M526.35,471.53c-0.04,2.21,1.79,4.05,3.98,4c2.04-0.05,3.79-1.81,3.84-3.85c0.05-2.19-1.81-4.01-4.01-3.96
	C528.05,467.76,526.39,469.43,526.35,471.53z"/>
</svg>
