<?xml version="1.0" encoding="utf-8"?>
<!-- Generator: Adobe Illustrator 23.1.0, SVG Export Plug-In . SVG Version: 6.00 Build 0)  -->
<svg version="1.1" id="Слой_1" xmlns="http://www.w3.org/2000/svg" xmlns:xlink="http://www.w3.org/1999/xlink" x="0px" y="0px"
	 viewBox="0 0 841.89 595.28" style="enable-background:new 0 0 841.89 595.28;" xml:space="preserve">
<style type="text/css">
	.st0{fill:#319275;}
	.st1{fill:none;stroke:#484848;stroke-width:4;stroke-linecap:round;stroke-linejoin:round;stroke-miterlimit:10;}
	.st2{fill:none;stroke:#212021;stroke-width:4;stroke-linecap:round;stroke-linejoin:round;stroke-miterlimit:10;}
	.st3{fill:none;stroke:#7A7B7B;stroke-width:4;stroke-linecap:round;stroke-linejoin:round;stroke-miterlimit:10;}
	.st4{fill:none;stroke:#319275;stroke-width:4;stroke-linecap:round;stroke-linejoin:round;stroke-miterlimit:10;}
</style>
<g>
	<path class="st0" d="M699.03,362.47c-2.32,2-5.28,3.52-8.62,4.67c-0.84,0.29-1.7,0.55-2.58,0.8c-17.79,4.9-43.57,0.85-43.57,0.85
		l0.11,3.13l-2.57,13l-7.83-3.23c0,0-16.63-37,15.88-39.1c32.51-2.1,30.98-13.96,51.06,5.74c14.47,14.2,4.54,21.24-2.12,24.06
		l-3.44,2.98l-6.62-7.66L699.03,362.47z"/>
	<path class="st1" d="M655.3,382.34c0,0,6.39-8.13,15.64-5.52"/>
	<line class="st1" x1="664.36" y1="386.48" x2="664.36" y2="391.63"/>
	<line class="st1" x1="687.06" y1="386.48" x2="687.06" y2="391.63"/>
	<path class="st2" d="M641.61,372.68"/>
	<line class="st1" x1="691.74" y1="367.31" x2="694.1" y2="374.58"/>
	<g>
		<path class="st1" d="M678.24,401.49c0,0,5.88-1.47,4.51-4.93c-1.36-3.46-8.71-10.5-0.73-15.33c7.98-4.83,17.01,1.05,17.01,1.05"/>
		<path class="st1" d="M680.87,408.42c-8.92,8.71-18.79,0-18.79,0s2.92,9.13,8.86,9.87C676.88,419.02,680.87,408.42,680.87,408.42z"
			/>
		<path class="st1" d="M644.26,384.16c0,0-10.21-4.81-13.99,4.89c-3.78,9.7,11.13,12.96,14.49,9.18"/>
		<path class="st1" d="M633.96,382.34c0,0-16.64-37,15.87-39.1s30.98-13.96,51.05,5.74c20.08,19.7-6.79,25.61-6.79,25.61l-0.83,36.5
			c0,0-0.56,7.36-1.48,9.14c-1.67,3.24-5,8.25-10.4,10.64c-7.49,3.31-27.48,0.05-34-14.17c-0.76-1.66-1.85-9.95-1.85-9.95
			l-1.29-37.3c0,0,28.4,4.46,46.15-1.64c3.34-1.15,6.3-2.67,8.63-4.67"/>
		<line class="st1" x1="635.81" y1="399.06" x2="635.81" y2="432.05"/>
		<path class="st1" d="M581.64,489.44c7.29-43.5,23.38-49.78,23.38-49.78l30.79-7.6c0,0,5.63,12.01,28.55,4.47"/>
		<path class="st1" d="M664.35,430.45v6.07c0,0,24.89,2.84,40.88,6.69"/>
		<polygon class="st3" points="678.24,449.59 799.4,420.9 799.4,511.6 678.24,558.18 		"/>
		<polyline class="st3" points="678.24,449.59 674.77,449.59 674.77,558.18 676.51,558.18 		"/>
		<line class="st3" x1="674.77" y1="449.59" x2="799.4" y2="419.67"/>
		<path class="st3" d="M678.24,558.18"/>
		<polyline class="st4" points="775.13,413.37 808.64,404.37 808.64,466.31 		"/>
		<line class="st4" x1="568.92" y1="408.42" x2="603.17" y2="408.42"/>
		<line class="st4" x1="555.81" y1="418.32" x2="587.87" y2="418.32"/>
		<g>
			<path class="st3" d="M590.55,538.69c-0.88,0.41-1.74,0.85-2.57,1.32"/>
			<path class="st3" d="M637.8,555.67c-2.16-9.68-11.57-17.43-23.72-19.71c-1.59-0.31-3.23-0.51-4.9-0.61"/>
			<path class="st3" d="M601.21,535.64c-1.04,0.14-2.05,0.31-3.05,0.53"/>
			<path class="st3" d="M581.4,545.05c-2.98,3.06-5.06,6.68-5.93,10.62"/>
			<line class="st3" x1="637.8" y1="555.67" x2="575.46" y2="555.67"/>
		</g>
		<line class="st3" x1="614.09" y1="535.96" x2="614.09" y2="555.67"/>
		<path class="st1" d="M587.76,549.97L587.7,550c-2.02,0.82-4.35-0.16-5.17-2.18l-6.65-16.32c-0.82-2.02,0.16-4.35,2.18-5.17
			l0.06-0.03c2.02-0.82,4.35,0.16,5.17,2.18l6.65,16.32C590.76,546.82,589.78,549.15,587.76,549.97z"/>
		<path class="st1" d="M596.13,541.69l-0.06,0.03c-2.02,0.82-4.35-0.16-5.17-2.18l-6.81-16.7c-0.82-2.02,0.16-4.35,2.18-5.17
			l0.06-0.03c2.02-0.82,4.35,0.16,5.17,2.18l6.81,16.7C599.13,538.54,598.15,540.87,596.13,541.69z"/>
		<path class="st1" d="M606.64,538.26l-0.06,0.03c-2.02,0.82-4.35-0.16-5.17-2.18l-7.1-17.43c-0.82-2.02,0.16-4.35,2.18-5.17
			l0.06-0.03c2.02-0.82,4.35,0.16,5.17,2.18l7.1,17.43C609.64,535.11,608.66,537.44,606.64,538.26z"/>
		<polyline class="st1" points="694.1,482.25 694.1,535.35 741.4,518.5 		"/>
	</g>
</g>
</svg>
